HIERARCHY
ROOT Hips
{
 OFFSET 0.000000 0.000000 0.000000
 CHANNELS 6 Xposition Yposition Zposition Yrotation Xrotation Zrotation
 JOINT Chest
 {
  OFFSET 0.000000 9.585900 0.002600
  CHANNELS 3 Yrotation Xrotation Zrotation
  JOINT Chest2
  {
   OFFSET 0.000000 9.601200 -0.005300
   CHANNELS 3 Yrotation Xrotation Zrotation
   JOINT Chest3
   {
    OFFSET 0.000000 9.561800 0.000000
    CHANNELS 3 Yrotation Xrotation Zrotation
    JOINT Chest4
    {
     OFFSET 0.000000 9.552100 0.000000
     CHANNELS 3 Yrotation Xrotation Zrotation
     JOINT Neck
     {
      OFFSET 0.000000 14.453000 0.000000
      CHANNELS 3 Yrotation Xrotation Zrotation
      JOINT Head
      {
       OFFSET 0.000000 8.936500 -0.011300
       CHANNELS 3 Yrotation Xrotation Zrotation
       End Site
       {
        OFFSET 0.000000 17.073600 -0.006000
       }
      }
     }
     JOINT RightCollar
     {
      OFFSET -2.921100 9.558500 0.000000
      CHANNELS 3 Yrotation Xrotation Zrotation
      JOINT RightShoulder
      {
       OFFSET -13.519700 0.000000 0.000000
       CHANNELS 3 Yrotation Xrotation Zrotation
       JOINT RightElbow
       {
        OFFSET 0.000000 -29.696600 0.000000
        CHANNELS 3 Yrotation Xrotation Zrotation
        JOINT RightWrist
        {
         OFFSET 0.000000 -24.004700 0.000000
         CHANNELS 3 Yrotation Xrotation Zrotation
         End Site
         {
          OFFSET 0.000000 -17.728500 0.000000
         }
        }
       }
      }
     }
     JOINT LeftCollar
     {
      OFFSET 2.921100 9.558500 0.000000
      CHANNELS 3 Yrotation Xrotation Zrotation
      JOINT LeftShoulder
      {
       OFFSET 13.519700 0.000000 0.000000
       CHANNELS 3 Yrotation Xrotation Zrotation
       JOINT LeftElbow
       {
        OFFSET 0.000000 -29.696600 0.000000
        CHANNELS 3 Yrotation Xrotation Zrotation
        JOINT LeftWrist
        {
         OFFSET 0.000000 -24.004700 0.000000
         CHANNELS 3 Yrotation Xrotation Zrotation
         End Site
         {
          OFFSET 0.000000 -17.728500 0.000000
         }
        }
       }
      }
     }
    }
   }
  }
 }
 JOINT RightHip
 {
  OFFSET -7.771700 -0.012900 -0.001300
  CHANNELS 3 Yrotation Xrotation Zrotation
  JOINT RightKnee
  {
   OFFSET 0.000000 -40.869800 0.001200
   CHANNELS 3 Yrotation Xrotation Zrotation
   JOINT RightAnkle
   {
    OFFSET 0.000000 -39.717900 0.002100
    CHANNELS 3 Yrotation Xrotation Zrotation
    JOINT RightToe
    {
     OFFSET 0.000000 -4.965400 11.033500
     CHANNELS 3 Yrotation Xrotation Zrotation
     End Site
     {
      OFFSET 0.000000 -1.423100 5.872300
     }
    }
   }
  }
 }
 JOINT LeftHip
 {
  OFFSET 7.771700 -0.012900 -0.001300
  CHANNELS 3 Yrotation Xrotation Zrotation
  JOINT LeftKnee
  {
   OFFSET 0.000000 -40.869800 0.001200
   CHANNELS 3 Yrotation Xrotation Zrotation
   JOINT LeftAnkle
   {
    OFFSET 0.000000 -39.717900 0.002100
    CHANNELS 3 Yrotation Xrotation Zrotation
    JOINT LeftToe
    {
     OFFSET 0.000000 -4.965400 11.033500
     CHANNELS 3 Yrotation Xrotation Zrotation
     End Site
     {
      OFFSET 0.000000 -1.423100 5.872300
     }
    }
   }
  }
 }
}
MOTION
Frames: 12
Frame Time: 0.008333
-65.013308 50.383685 -3.317424 164.927498 -6.585347 0.148396 3.583665 6.675949 0.216449 0.151153 0.293615 -0.040119 0.266551 0.549931 -0.064962 3.136219 6.423982 -0.623850 3.245588 19.504404 0.324866 5.887235 0.404659 -0.447890 1.772724 7.532367 0.683908 -10.337272 -13.065867 -7.690741 -64.106906 -69.009477 88.170862 -3.154872 2.894332 -27.309545 -5.636116 4.795578 0.408816 23.277897 -7.347586 0.928817 69.009450 -72.214819 -92.248077 -3.469361 11.513820 0.525197 -2.832932 -73.729436 -4.001685 -124.084316 79.783937 -122.154725 -1.184963 -17.153664 0.079417 -0.303650 0.935328 -0.146517 -10.212239 -77.496641 25.882575 118.024565 78.302812 115.093286 -15.495065 -23.107481 0.165142 -0.409557 -1.128185 -0.161665
-65.015254 50.382641 -3.319246 164.929099 -6.585863 0.166828 3.579184 6.642820 0.194055 0.151885 0.307065 -0.037926 0.265193 0.564565 -0.064751 3.137343 6.393917 -0.626453 3.268251 19.521995 0.321602 5.933657 0.392362 -0.468293 1.777577 7.559854 0.679392 -10.338642 -13.052163 -7.681539 -64.073192 -69.008704 88.144112 -3.163015 2.903154 -27.300097 -5.624860 4.819754 0.398028 23.255191 -7.345027 0.933492 69.021199 -72.174542 -92.205789 -3.275684 11.386451 0.939768 -2.760706 -73.731250 -4.080654 -124.111906 79.782697 -122.177720 -1.187011 -17.161247 0.079354 -0.301561 0.939426 -0.146206 -10.143417 -77.502477 25.813322 118.073160 78.307904 115.147006 -15.544299 -23.099490 0.175086 -0.377610 -1.138898 -0.158348
-65.014759 50.381059 -3.321366 164.935119 -6.588650 0.170223 3.571538 6.626133 0.188975 0.151640 0.306026 -0.037916 0.266663 0.538715 -0.065884 3.136146 6.406832 -0.625910 3.309523 19.484149 0.305512 5.947124 0.431090 -0.458646 1.783197 7.584039 0.681142 -10.334936 -13.054964 -7.673739 -64.024556 -69.011693 88.094570 -3.167691 2.910817 -27.289665 -5.621135 4.852470 0.396868 23.248727 -7.353842 0.917301 69.045293 -72.134684 -92.171041 -3.106831 11.273572 1.307688 -2.734535 -73.731349 -4.116460 -124.148873 79.775371 -122.206018 -1.178861 -17.163122 0.076681 -0.303878 0.934040 -0.143586 -10.141486 -77.501229 25.805139 118.120569 78.315018 115.192198 -15.535784 -23.108683 0.177332 -0.371831 -1.132542 -0.160305
-65.013486 50.379592 -3.329160 164.956016 -6.623095 0.175380 3.547272 6.649792 0.182975 0.149891 0.304101 -0.038153 0.270734 0.545357 -0.065879 3.129404 6.397578 -0.627799 3.335691 19.476351 0.294721 5.946592 0.441764 -0.447973 1.786795 7.577599 0.699463 -10.322489 -13.051735 -7.688998 -63.981956 -69.012099 88.049715 -3.155499 2.919346 -27.272211 -5.602632 4.853514 0.379178 23.261847 -7.365266 0.883672 69.030447 -72.122164 -92.113441 -2.968078 11.182846 1.613033 -2.711023 -73.700351 -4.166416 -124.290295 79.768807 -122.335759 -1.191624 -17.175197 0.071342 -0.293245 0.925686 -0.139778 -10.107047 -77.468718 25.749698 118.170120 78.318336 115.245877 -15.552767 -23.123575 0.185047 -0.400135 -1.130686 -0.171514
-65.010122 50.377752 -3.336638 164.936090 -6.657132 0.171996 3.566625 6.680694 0.190812 0.148251 0.302493 -0.038400 0.268334 0.538590 -0.065604 3.126148 6.405320 -0.628230 3.364892 19.462059 0.276962 6.047619 0.405548 -0.514002 1.795499 7.575176 0.706177 -10.320486 -13.068805 -7.690392 -63.928895 -69.009627 87.996381 -3.146107 2.905927 -27.272564 -5.578397 4.807680 0.336170 23.271783 -7.350023 0.889444 68.980024 -72.136090 -92.056122 -2.821039 11.085637 1.888705 -2.701342 -73.667348 -4.156866 -124.348994 79.766913 -122.391006 -1.192430 -17.176858 0.071822 -0.295083 0.919706 -0.141639 -10.111883 -77.433974 25.772637 118.288251 78.320038 115.364119 -15.523883 -23.146139 0.184259 -0.393834 -1.132532 -0.176889
-65.007993 50.375068 -3.339353 164.933505 -6.660766 0.165915 3.563659 6.677302 0.195779 0.151308 0.305933 -0.037936 0.259742 0.524990 -0.068135 3.135056 6.421541 -0.624485 3.383497 19.450993 0.260026 6.116997 0.392977 -0.565254 1.799055 7.574022 0.708029 -10.323684 -13.091834 -7.685575 -63.925044 -69.013151 87.994412 -3.147762 2.918105 -27.276919 -5.570651 4.784260 0.315814 23.300027 -7.345130 0.871263 69.101482 -72.101273 -92.114289 -2.744645 11.041970 2.058051 -2.700969 -73.664266 -4.155877 -124.390686 79.768089 -122.426034 -1.182857 -17.179163 0.073086 -0.305471 0.918306 -0.146327 -10.162058 -77.429658 25.815236 118.315927 78.311078 115.387163 -15.462058 -23.159443 0.175792 -0.412271 -1.128116 -0.186549
-65.004769 50.372624 -3.344950 164.938908 -6.682771 0.156849 3.554590 6.688494 0.202771 0.151203 0.306282 -0.037856 0.262191 0.528607 -0.066957 3.129431 6.422793 -0.624501 3.406392 19.438290 0.242506 6.164570 0.384850 -0.602778 1.808972 7.568817 0.717920 -10.325419 -13.107627 -7.687909 -63.885352 -69.013111 87.953537 -3.142969 2.915697 -27.275351 -5.555632 4.765483 0.299131 23.330602 -7.339303 0.854394 69.261743 -72.068090 -92.214485 -2.685314 11.015905 2.184986 -2.713200 -73.642199 -4.151799 -124.476776 79.768756 -122.500855 -1.182125 -17.184162 0.068192 -0.307371 0.913194 -0.145776 -10.191712 -77.407111 25.837758 118.350799 78.310335 115.422955 -15.426349 -23.171833 0.168823 -0.401255 -1.125133 -0.186648
-65.003045 50.370268 -3.351665 164.929279 -6.709279 0.159747 3.557364 6.686480 0.199509 0.153742 0.319474 -0.037702 0.263954 0.536201 -0.065718 3.115706 6.402040 -0.627149 3.431187 19.455593 0.237316 6.213563 0.349127 -0.654747 1.828962 7.582585 0.728206 -10.324840 -13.118470 -7.686116 -63.937166 -69.015101 87.993557 -3.130041 2.929623 -27.263026 -5.530779 4.769563 0.285021 23.363918 -7.334482 0.840756 69.408195 -72.057047 -92.323260 -2.629045 10.985439 2.296488 -2.676731 -73.616156 -4.179810 -124.550603 79.769405 -122.566259 -1.190677 -17.195352 0.064875 -0.302532 0.916603 -0.142885 -10.161155 -77.378151 25.810452 118.395557 78.311759 115.476662 -15.419530 -23.188310 0.158368 -0.344074 -1.126741 -0.175109
-65.004082 50.367735 -3.356468 164.926455 -6.721051 0.174477 3.552779 6.687994 0.184385 0.150552 0.306151 -0.037912 0.267153 0.540988 -0.065212 3.114496 6.413122 -0.627745 3.451850 19.421792 0.214725 6.251924 0.310198 -0.687808 1.837875 7.574380 0.739629 -10.320315 -13.128194 -7.684131 -63.976407 -69.011562 88.018760 -3.120569 2.904460 -27.252396 -5.519153 4.765505 0.279108 23.393565 -7.336470 0.827237 69.612411 -72.058933 -92.481697 -2.591128 10.954928 2.390654 -2.608741 -73.608764 -4.245437 -124.611217 79.764643 -122.619471 -1.208526 -17.203918 0.059872 -0.287488 0.919613 -0.135118 -10.113774 -77.361131 25.761223 118.377080 78.301646 115.456455 -15.453989 -23.195175 0.158621 -0.380166 -1.128391 -0.175601
-65.004268 50.365398 -3.360875 164.925377 -6.732658 0.182748 3.547879 6.693613 0.175346 0.150386 0.306002 -0.037932 0.268263 0.541756 -0.064661 3.115646 6.416422 -0.627965 3.464333 19.367663 0.190759 6.288531 0.250789 -0.721313 1.841033 7.561630 0.754354 -10.314324 -13.141700 -7.683592 -64.006193 -69.004259 88.037329 -3.117214 2.907019 -27.250264 -5.512124 4.754322 0.272457 23.399968 -7.330730 0.831729 69.898909 -72.072707 -92.701778 -2.562795 10.921644 2.475551 -2.563011 -73.601641 -4.286161 -124.653692 79.755057 -122.659171 -1.218894 -17.209076 0.058923 -0.279510 0.919150 -0.128492 -10.075090 -77.350104 25.722110 118.361172 78.288251 115.443583 -15.481839 -23.187182 0.156802 -0.409405 -1.137248 -0.177303
-65.003444 50.363101 -3.362780 164.921583 -6.732202 0.180462 3.550394 6.691264 0.177451 0.147883 0.299713 -0.038063 0.265421 0.542032 -0.065645 3.112576 6.414455 -0.626894 3.482941 19.317559 0.171482 6.322143 0.164653 -0.761951 1.855806 7.534343 0.779686 -10.311233 -13.123555 -7.706242 -64.029115 -68.997892 88.057608 -3.110573 2.920359 -27.256249 -5.496644 4.731610 0.257894 23.437964 -7.325920 0.831944 70.092803 -72.107332 -92.863493 -2.534885 10.887282 2.552630 -2.562985 -73.603318 -4.280900 -124.681474 79.754810 -122.684612 -1.220611 -17.213928 0.057663 -0.280605 0.922881 -0.127802 -10.090233 -77.350030 25.739436 118.336860 78.274290 115.417632 -15.474235 -23.175924 0.149667 -0.400199 -1.142177 -0.175114
-65.002644 50.361285 -3.365789 164.925122 -6.739222 0.177626 3.543448 6.689986 0.180244 0.147967 0.297604 -0.039291 0.264898 0.542868 -0.064397 3.109971 6.398428 -0.628231 3.500923 19.275592 0.153550 6.352974 0.062994 -0.803711 1.866047 7.541689 0.793107 -10.310596 -13.122650 -7.712415 -64.004719 -68.996550 88.031950 -3.117474 2.885766 -27.261187 -5.485932 4.729818 0.248280 23.479604 -7.325991 0.829050 70.255738 -72.137339 -93.001945 -2.503293 10.853532 2.622647 -2.566594 -73.597416 -4.278671 -124.727001 79.753897 -122.733037 -1.215346 -17.220566 0.064985 -0.291269 0.924141 -0.132599 -10.091494 -77.342719 25.739584 118.321467 78.268715 115.403165 -15.474792 -23.166831 0.144549 -0.382752 -1.147104 -0.169674
